<mxfile host="app.diagrams.net" agent="Mozilla/5.0 (X11; Linux x86_64; rv:128.0) Gecko/20100101 Firefox/128.0" version="27.0.2">
  <diagram name="Page-1" id="I-WCKS0thHTMVLHOPiGX">
    <mxGraphModel dx="839" dy="468" grid="1" gridSize="10" guides="1" tooltips="1" connect="1" arrows="1" fold="1" page="1" pageScale="1" pageWidth="850" pageHeight="1100" math="0" shadow="0">
      <root>
        <mxCell id="0" />
        <mxCell id="1" parent="0" />
        <mxCell id="E8oWA0aktgfHAe41XzHA-10" value="" style="rounded=0;whiteSpace=wrap;html=1;verticalAlign=bottom;" parent="1" vertex="1">
          <mxGeometry x="490" y="80" width="140" height="310" as="geometry" />
        </mxCell>
        <mxCell id="E8oWA0aktgfHAe41XzHA-3" value="System Administrator" style="shape=umlActor;verticalLabelPosition=bottom;verticalAlign=top;html=1;outlineConnect=0;" parent="1" vertex="1">
          <mxGeometry x="370" y="205" width="30" height="60" as="geometry" />
        </mxCell>
        <mxCell id="TEm9w0ADYNhKFa85-Qet-6" value="&lt;div&gt;Aggregate Data&lt;/div&gt;" style="ellipse;whiteSpace=wrap;html=1;" vertex="1" parent="1">
          <mxGeometry x="500" y="150" width="120" height="50" as="geometry" />
        </mxCell>
        <mxCell id="TEm9w0ADYNhKFa85-Qet-7" value="" style="endArrow=none;html=1;rounded=0;" edge="1" parent="1" source="TEm9w0ADYNhKFa85-Qet-6">
          <mxGeometry width="50" height="50" relative="1" as="geometry">
            <mxPoint x="540" y="390" as="sourcePoint" />
            <mxPoint x="650" y="175" as="targetPoint" />
          </mxGeometry>
        </mxCell>
        <mxCell id="E8oWA0aktgfHAe41XzHA-8" value="Configure Edge Device" style="ellipse;whiteSpace=wrap;html=1;" parent="1" vertex="1">
          <mxGeometry x="500" y="210" width="120" height="50" as="geometry" />
        </mxCell>
        <mxCell id="E8oWA0aktgfHAe41XzHA-13" value="" style="endArrow=none;html=1;rounded=0;" parent="1" source="E8oWA0aktgfHAe41XzHA-3" target="E8oWA0aktgfHAe41XzHA-8" edge="1">
          <mxGeometry width="50" height="50" relative="1" as="geometry">
            <mxPoint x="530" y="280" as="sourcePoint" />
            <mxPoint x="580" y="230" as="targetPoint" />
          </mxGeometry>
        </mxCell>
        <mxCell id="TEm9w0ADYNhKFa85-Qet-15" value="&lt;div&gt;Export Data&lt;/div&gt;" style="ellipse;whiteSpace=wrap;html=1;" vertex="1" parent="1">
          <mxGeometry x="500" y="90" width="120" height="50" as="geometry" />
        </mxCell>
        <mxCell id="TEm9w0ADYNhKFa85-Qet-16" value="" style="endArrow=none;html=1;rounded=0;" edge="1" parent="1" source="TEm9w0ADYNhKFa85-Qet-15" target="TEm9w0ADYNhKFa85-Qet-6">
          <mxGeometry width="50" height="50" relative="1" as="geometry">
            <mxPoint x="400" y="200" as="sourcePoint" />
            <mxPoint x="450" y="150" as="targetPoint" />
          </mxGeometry>
        </mxCell>
        <mxCell id="TEm9w0ADYNhKFa85-Qet-18" value="" style="endArrow=none;dashed=1;html=1;rounded=0;" edge="1" parent="1">
          <mxGeometry width="50" height="50" relative="1" as="geometry">
            <mxPoint x="650" y="174.93" as="sourcePoint" />
            <mxPoint x="670" y="175" as="targetPoint" />
          </mxGeometry>
        </mxCell>
        <mxCell id="TEm9w0ADYNhKFa85-Qet-19" value="" style="endArrow=none;html=1;rounded=0;" edge="1" parent="1">
          <mxGeometry width="50" height="50" relative="1" as="geometry">
            <mxPoint x="620" y="234.74" as="sourcePoint" />
            <mxPoint x="650" y="234.74" as="targetPoint" />
          </mxGeometry>
        </mxCell>
        <mxCell id="TEm9w0ADYNhKFa85-Qet-20" value="" style="endArrow=none;dashed=1;html=1;rounded=0;" edge="1" parent="1">
          <mxGeometry width="50" height="50" relative="1" as="geometry">
            <mxPoint x="650" y="234.67000000000002" as="sourcePoint" />
            <mxPoint x="670" y="234.74" as="targetPoint" />
          </mxGeometry>
        </mxCell>
        <mxCell id="TEm9w0ADYNhKFa85-Qet-21" value="" style="endArrow=none;html=1;rounded=0;" edge="1" parent="1" source="E8oWA0aktgfHAe41XzHA-3" target="TEm9w0ADYNhKFa85-Qet-15">
          <mxGeometry width="50" height="50" relative="1" as="geometry">
            <mxPoint x="400" y="70" as="sourcePoint" />
            <mxPoint x="450" y="20" as="targetPoint" />
          </mxGeometry>
        </mxCell>
        <mxCell id="TEm9w0ADYNhKFa85-Qet-22" value="Set up new Edge Device" style="ellipse;whiteSpace=wrap;html=1;" vertex="1" parent="1">
          <mxGeometry x="500" y="330" width="120" height="50" as="geometry" />
        </mxCell>
        <mxCell id="TEm9w0ADYNhKFa85-Qet-23" value="" style="endArrow=none;html=1;rounded=0;" edge="1" parent="1">
          <mxGeometry width="50" height="50" relative="1" as="geometry">
            <mxPoint x="620" y="354.74" as="sourcePoint" />
            <mxPoint x="650" y="354.74" as="targetPoint" />
          </mxGeometry>
        </mxCell>
        <mxCell id="TEm9w0ADYNhKFa85-Qet-24" value="" style="endArrow=none;dashed=1;html=1;rounded=0;" edge="1" parent="1">
          <mxGeometry width="50" height="50" relative="1" as="geometry">
            <mxPoint x="650" y="354.67" as="sourcePoint" />
            <mxPoint x="670" y="354.74" as="targetPoint" />
          </mxGeometry>
        </mxCell>
        <mxCell id="TEm9w0ADYNhKFa85-Qet-25" value="Access Edge Device Remotely" style="ellipse;whiteSpace=wrap;html=1;" vertex="1" parent="1">
          <mxGeometry x="500" y="270" width="120" height="50" as="geometry" />
        </mxCell>
        <mxCell id="TEm9w0ADYNhKFa85-Qet-26" value="" style="endArrow=none;html=1;rounded=0;" edge="1" parent="1">
          <mxGeometry width="50" height="50" relative="1" as="geometry">
            <mxPoint x="620" y="294.74" as="sourcePoint" />
            <mxPoint x="650" y="294.74" as="targetPoint" />
          </mxGeometry>
        </mxCell>
        <mxCell id="TEm9w0ADYNhKFa85-Qet-27" value="" style="endArrow=none;dashed=1;html=1;rounded=0;" edge="1" parent="1">
          <mxGeometry width="50" height="50" relative="1" as="geometry">
            <mxPoint x="650" y="294.67" as="sourcePoint" />
            <mxPoint x="670" y="294.74" as="targetPoint" />
          </mxGeometry>
        </mxCell>
        <mxCell id="TEm9w0ADYNhKFa85-Qet-28" value="" style="endArrow=none;html=1;rounded=0;" edge="1" parent="1" source="TEm9w0ADYNhKFa85-Qet-25" target="E8oWA0aktgfHAe41XzHA-3">
          <mxGeometry width="50" height="50" relative="1" as="geometry">
            <mxPoint x="420" y="420" as="sourcePoint" />
            <mxPoint x="470" y="370" as="targetPoint" />
          </mxGeometry>
        </mxCell>
        <mxCell id="TEm9w0ADYNhKFa85-Qet-29" value="" style="endArrow=none;html=1;rounded=0;" edge="1" parent="1" source="TEm9w0ADYNhKFa85-Qet-22" target="E8oWA0aktgfHAe41XzHA-3">
          <mxGeometry width="50" height="50" relative="1" as="geometry">
            <mxPoint x="420" y="420" as="sourcePoint" />
            <mxPoint x="470" y="370" as="targetPoint" />
          </mxGeometry>
        </mxCell>
      </root>
    </mxGraphModel>
  </diagram>
</mxfile>
